# xmcd
#
# Track frame offsets:
#	150
#	18054
#	31542
#	50252
#	68217
#	86876
#	104552
#	123236
#	140219
#	158250
#	175564
#	189140
#
# Disc length: 2747 seconds
#
# Revision: 0
# Processed by: cddbd v1.5.2PL0 Copyright (c) Steve Scherf et al.
# Submitted via: audiograbber 1.83.01
#
DISCID=8a0ab90c
DTITLE=G.G. Anderson - Laﬂ uns tr‰umen
DYEAR=1985
DGENRE=Schlager
TTITLE0=Am weiﬂen Strand von San Angelo
TTITLE1=Adieu Marialena Bianca
TTITLE2=San Fernando
TTITLE3=Blue Monday
TTITLE4=Hungriges Herz
TTITLE5=Heut nacht f‰llt ein Stern auf die Erde
TTITLE6=Angle Blue
TTITLE7=Flieg mit mir zu den Sternen
TTITLE8=Papa Charlie
TTITLE9=Jim und Andy
TTITLE10=Ein Drachen steigt
TTITLE11=Denn die Welt kann sich nicht wehren
EXTD=
EXTT0=
EXTT1=
EXTT2=
EXTT3=
EXTT4=
EXTT5=
EXTT6=
EXTT7=
EXTT8=
EXTT9=
EXTT10=
EXTT11=
PLAYORDER=
